{
  "accessors": [
    {
      "bufferView": 2,
      "componentType": 5126,
      "count": 65532,
      "max": [
        1.8132139444351196,
        1.1558210849761963,
        5.2552309036254883
      ],
      "min": [
        0.18876993656158447,
        0,
        0.071534156799316406
      ],
      "type": "VEC3"
    },
    {
      "bufferView": 2,
      "byteOffset": 786384,
      "componentType": 5126,
      "count": 65532,
      "max": [
        0.99998259544372559,
        0.99989455938339233,
        0.99963003396987915
      ],
      "min": [
        -0.99999821186065674,
        -0.99999481439590454,
        -0.99992293119430542
      ],
      "type": "VEC3"
    },
    {
      "bufferView": 3,
      "componentType": 5126,
      "count": 65532,
      "max": [
        0.99999934434890747,
        0.99999171495437622,
        0.99997133016586304,
        1
      ],
      "min": [
        -0.99899095296859741,
        -0.99981671571731567,
        -0.99271368980407715,
        -1
      ],
      "type": "VEC4"
    },
    {
      "bufferView": 1,
      "componentType": 5126,
      "count": 65532,
      "max": [
        0.98389899730682373,
        0.98308002948760986
      ],
      "min": [
        0.003742000088095665,
        0.0047659999690949917
      ],
      "type": "VEC2"
    },
    {
      "bufferView": 0,
      "componentType": 5125,
      "count": 313803,
      "max": [
        65531
      ],
      "min": [
        0
      ],
      "type": "SCALAR"
    },
    {
      "bufferView": 2,
      "byteOffset": 1572768,
      "componentType": 5126,
      "count": 65532,
      "max": [
        1.8118990659713745,
        1.1274950504302979,
        5.3203582763671875
      ],
      "min": [
        0.0062220096588134766,
        0.05248713493347168,
        0.0022912025451660156
      ],
      "type": "VEC3"
    },
    {
      "bufferView": 2,
      "byteOffset": 2359152,
      "componentType": 5126,
      "count": 65532,
      "max": [
        1,
        0.99995559453964233,
        0.99994337558746338
      ],
      "min": [
        -0.99999856948852539,
        -0.99999743700027466,
        -0.99995094537734985
      ],
      "type": "VEC3"
    },
    {
      "bufferView": 3,
      "byteOffset": 1048512,
      "componentType": 5126,
      "count": 65532,
      "max": [
        0.99998283386230469,
        0.99989891052246094,
        0.99999523162841797,
        1
      ],
      "min": [
        -0.99995875358581543,
        -0.99999541044235229,
        -0.99973863363265991,
        -1
      ],
      "type": "VEC4"
    },
    {
      "bufferView": 1,
      "byteOffset": 524256,
      "componentType": 5126,
      "count": 65532,
      "max": [
        0.98972100019454956,
        0.99557298421859741
      ],
      "min": [
        0.01548600010573864,
        0.003751999931409955
      ],
      "type": "VEC2"
    },
    {
      "bufferView": 0,
      "byteOffset": 1255212,
      "componentType": 5125,
      "count": 314631,
      "max": [
        65531
      ],
      "min": [
        0
      ],
      "type": "SCALAR"
    },
    {
      "bufferView": 2,
      "byteOffset": 3145536,
      "componentType": 5126,
      "count": 65532,
      "max": [
        1.8277879953384399,
        1.1537899971008301,
        5.3209743499755859
      ],
      "min": [
        0.046382904052734375,
        0.0001010894775390625,
        0.0012230873107910156
      ],
      "type": "VEC3"
    },
    {
      "bufferView": 2,
      "byteOffset": 3931920,
      "componentType": 5126,
      "count": 65532,
      "max": [
        0.99998259544372559,
        0.99999088048934937,
        0.99994754791259766
      ],
      "min": [
        -0.99998056888580322,
        -0.99998646974563599,
        -0.99995625019073486
      ],
      "type": "VEC3"
    },
    {
      "bufferView": 3,
      "byteOffset": 2097024,
      "componentType": 5126,
      "count": 65532,
      "max": [
        0.99994856119155884,
        0.99999773502349854,
        0.99999237060546875,
        1
      ],
      "min": [
        -0.99975317716598511,
        -0.99997586011886597,
        -0.99406957626342773,
        -1
      ],
      "type": "VEC4"
    },
    {
      "bufferView": 1,
      "byteOffset": 1048512,
      "componentType": 5126,
      "count": 65532,
      "max": [
        0.97718101739883423,
        0.99074798822402954
      ],
      "min": [
        0.0086899995803833008,
        0.0038379998877644539
      ],
      "type": "VEC2"
    },
    {
      "bufferView": 0,
      "byteOffset": 2513736,
      "componentType": 5125,
      "count": 322812,
      "max": [
        65531
      ],
      "min": [
        0
      ],
      "type": "SCALAR"
    },
    {
      "bufferView": 2,
      "byteOffset": 4718304,
      "componentType": 5126,
      "count": 65532,
      "max": [
        1.8293620347976685,
        1.0759880542755127,
        5.3161802291870117
      ],
      "min": [
        8.8930130004882812e-05,
        0.0036120414733886719,
        0.006580352783203125
      ],
      "type": "VEC3"
    },
    {
      "bufferView": 2,
      "byteOffset": 5504688,
      "componentType": 5126,
      "count": 65532,
      "max": [
        0.99998825788497925,
        0.99999386072158813,
        0.99988484382629395
      ],
      "min": [
        -0.99999123811721802,
        -0.99999743700027466,
        -0.99994224309921265
      ],
      "type": "VEC3"
    },
    {
      "bufferView": 3,
      "byteOffset": 3145536,
      "componentType": 5126,
      "count": 65532,
      "max": [
        0.99999779462814331,
        0.99990171194076538,
        0.99998277425765991,
        1
      ],
      "min": [
        -0.99994593858718872,
        -0.99998599290847778,
        -0.99394577741622925,
        -1
      ],
      "type": "VEC4"
    },
    {
      "bufferView": 1,
      "byteOffset": 1572768,
      "componentType": 5126,
      "count": 65532,
      "max": [
        0.98596101999282837,
        0.99578899145126343
      ],
      "min": [
        0.0037839999422430992,
        0.026135999709367752
      ],
      "type": "VEC2"
    },
    {
      "bufferView": 0,
      "byteOffset": 3804984,
      "componentType": 5125,
      "count": 319329,
      "max": [
        65531
      ],
      "min": [
        0
      ],
      "type": "SCALAR"
    },
    {
      "bufferView": 2,
      "byteOffset": 6291072,
      "componentType": 5126,
      "count": 65532,
      "max": [
        1.827659010887146,
        1.0815849304199219,
        5.3214640617370605
      ],
      "min": [
        0.0025399923324584961,
        0.039578914642333984,
        0
      ],
      "type": "VEC3"
    },
    {
      "bufferView": 2,
      "byteOffset": 7077456,
      "componentType": 5126,
      "count": 65532,
      "max": [
        0.9999958872795105,
        0.99999445676803589,
        0.9999011754989624
      ],
      "min": [
        -0.99997854232788086,
        -0.99999833106994629,
        -0.99994224309921265
      ],
      "type": "VEC3"
    },
    {
      "bufferView": 3,
      "byteOffset": 4194048,
      "componentType": 5126,
      "count": 65532,
      "max": [
        0.99999785423278809,
        0.99996465444564819,
        0.99997419118881226,
        1
      ],
      "min": [
        -0.99977385997772217,
        -0.99999827146530151,
        -0.99952000379562378,
        -1
      ],
      "type": "VEC4"
    },
    {
      "bufferView": 1,
      "byteOffset": 2097024,
      "componentType": 5126,
      "count": 65532,
      "max": [
        0.984965980052948,
        0.98728597164154053
      ],
      "min": [
        0.011154999956488609,
        0.0039880000986158848
      ],
      "type": "VEC2"
    },
    {
      "bufferView": 0,
      "byteOffset": 5082300,
      "componentType": 5125,
      "count": 315459,
      "max": [
        65531
      ],
      "min": [
        0
      ],
      "type": "SCALAR"
    },
    {
      "bufferView": 2,
      "byteOffset": 7863840,
      "componentType": 5126,
      "count": 65533,
      "max": [
        1.8187719583511353,
        1.1554069519042969,
        5.3200201988220215
      ],
      "min": [
        0,
        0.034872055053710938,
        0.005859375
      ],
      "type": "VEC3"
    },
    {
      "bufferView": 2,
      "byteOffset": 8650236,
      "componentType": 5126,
      "count": 65533,
      "max": [
        0.99993747472763062,
        0.99999386072158813,
        0.99994754791259766
      ],
      "min": [
        -0.99997532367706299,
        -0.99999076128005981,
        -0.9999765157699585
      ],
      "type": "VEC3"
    },
    {
      "bufferView": 3,
      "byteOffset": 5242560,
      "componentType": 5126,
      "count": 65533,
      "max": [
        0.99999779462814331,
        0.99999380111694336,
        0.99989277124404907,
        1
      ],
      "min": [
        -0.99999576807022095,
        -0.99988609552383423,
        -0.99978166818618774,
        -1
      ],
      "type": "VEC4"
    },
    {
      "bufferView": 1,
      "byteOffset": 2621280,
      "componentType": 5126,
      "count": 65533,
      "max": [
        0.98943901062011719,
        0.99649298191070557
      ],
      "min": [
        0.0046500000171363354,
        0.0055760000832378864
      ],
      "type": "VEC2"
    },
    {
      "bufferView": 0,
      "byteOffset": 6344136,
      "componentType": 5125,
      "count": 290232,
      "max": [
        65532
      ],
      "min": [
        0
      ],
      "type": "SCALAR"
    },
    {
      "bufferView": 2,
      "byteOffset": 9436632,
      "componentType": 5126,
      "count": 65532,
      "max": [
        1.8293620347976685,
        1.1554830074310303,
        5.3213191032409668
      ],
      "min": [
        0,
        0.0012600421905517578,
        0.0012230873107910156
      ],
      "type": "VEC3"
    },
    {
      "bufferView": 2,
      "byteOffset": 10223016,
      "componentType": 5126,
      "count": 65532,
      "max": [
        0.9999738335609436,
        0.99993008375167847,
        0.99984657764434814
      ],
      "min": [
        -0.99999123811721802,
        -0.99999481439590454,
        -0.99993127584457397
      ],
      "type": "VEC3"
    },
    {
      "bufferView": 3,
      "byteOffset": 6291088,
      "componentType": 5126,
      "count": 65532,
      "max": [
        0.99999266862869263,
        0.99999773502349854,
        0.99999672174453735,
        1
      ],
      "min": [
        -0.99980425834655762,
        -0.99999451637268066,
        -0.99984186887741089,
        -1
      ],
      "type": "VEC4"
    },
    {
      "bufferView": 1,
      "byteOffset": 3145544,
      "componentType": 5126,
      "count": 65532,
      "max": [
        0.98957502841949463,
        0.99516302347183228
      ],
      "min": [
        0.0038829999975860119,
        0.0038499999791383743
      ],
      "type": "VEC2"
    },
    {
      "bufferView": 0,
      "byteOffset": 7505064,
      "componentType": 5125,
      "count": 158682,
      "max": [
        65531
      ],
      "min": [
        0
      ],
      "type": "SCALAR"
    },
    {
      "bufferView": 2,
      "byteOffset": 11009400,
      "componentType": 5126,
      "count": 13741,
      "max": [
        1.8268200159072876,
        1.1543309688568115,
        5.3201313018798828
      ],
      "min": [
        0.0064200162887573242,
        0.00080990791320800781,
        0.00062894821166992188
      ],
      "type": "VEC3"
    },
    {
      "bufferView": 2,
      "byteOffset": 11174292,
      "componentType": 5126,
      "count": 13741,
      "max": [
        0.99999260902404785,
        0.99989455938339233,
        0.99579060077667236
      ],
      "min": [
        -0.99994498491287231,
        -0.99996411800384521,
        -0.99964678287506104
      ],
      "type": "VEC3"
    },
    {
      "bufferView": 3,
      "byteOffset": 7339600,
      "componentType": 5126,
      "count": 13741,
      "max": [
        0.99997884035110474,
        0.99999171495437622,
        0.99998539686203003,
        1
      ],
      "min": [
        -0.99965369701385498,
        -0.99992406368255615,
        -0.99861997365951538,
        -1
      ],
      "type": "VEC4"
    },
    {
      "bufferView": 1,
      "byteOffset": 3669800,
      "componentType": 5126,
      "count": 13741,
      "max": [
        0.98875898122787476,
        0.99565201997756958
      ],
      "min": [
        0.0045010000467300415,
        0.005824000108987093
      ],
      "type": "VEC2"
    },
    {
      "bufferView": 0,
      "byteOffset": 8139792,
      "componentType": 5125,
      "count": 16674,
      "max": [
        13740
      ],
      "min": [
        0
      ],
      "type": "SCALAR"
    }
  ],
  "asset": {
    "extras": {
      "author": "Magma.cgi (https://sketchfab.com/magma.cgi)",
      "license": "CC-BY-4.0 (http://creativecommons.org/licenses/by/4.0/)",
      "source": "https://sketchfab.com/models/509061a97fde4510a2b3d7c02bdd2012",
      "title": "SCAN635 Woman"
    },
    "generator": "Sketchfab-3.18.6",
    "version": "2.0"
  },
  "bufferViews": [
    {
      "buffer": 0,
      "byteLength": 8206488,
      "byteOffset": 0,
      "name": "floatBufferViews",
      "target": 34963
    },
    {
      "buffer": 0,
      "byteLength": 3779728,
      "byteOffset": 8206488,
      "byteStride": 8,
      "name": "floatBufferViews",
      "target": 34962
    },
    {
      "buffer": 0,
      "byteLength": 11339184,
      "byteOffset": 11986216,
      "byteStride": 12,
      "name": "floatBufferViews",
      "target": 34962
    },
    {
      "buffer": 0,
      "byteLength": 7559456,
      "byteOffset": 23325400,
      "byteStride": 16,
      "name": "floatBufferViews",
      "target": 34962
    }
  ],
  "buffers": [
    {
      "byteLength": 30884856,
      "uri": "scene.bin"
    }
  ],
  "extensionsRequired": [
    "KHR_materials_pbrSpecularGlossiness"
  ],
  "extensionsUsed": [
    "KHR_materials_pbrSpecularGlossiness"
  ],
  "images": [
    {
      "uri": "textures/material_0_diffuse.jpg"
    }
  ],
  "materials": [
    {
      "doubleSided": true,
      "extensions": {
        "KHR_materials_pbrSpecularGlossiness": {
          "diffuseFactor": [
            1,
            1,
            1,
            1
          ],
          "diffuseTexture": {
            "index": 0,
            "texCoord": 0
          },
          "glossinessFactor": 0,
          "specularFactor": [
            0,
            0,
            0
          ]
        }
      },
      "name": "material_0"
    }
  ],
  "meshes": [
    {
      "primitives": [
        {
          "attributes": {
            "NORMAL": 1,
            "POSITION": 0,
            "TANGENT": 2,
            "TEXCOORD_0": 3
          },
          "indices": 4,
          "material": 0,
          "mode": 4
        }
      ]
    },
    {
      "primitives": [
        {
          "attributes": {
            "NORMAL": 6,
            "POSITION": 5,
            "TANGENT": 7,
            "TEXCOORD_0": 8
          },
          "indices": 9,
          "material": 0,
          "mode": 4
        }
      ]
    },
    {
      "primitives": [
        {
          "attributes": {
            "NORMAL": 11,
            "POSITION": 10,
            "TANGENT": 12,
            "TEXCOORD_0": 13
          },
          "indices": 14,
          "material": 0,
          "mode": 4
        }
      ]
    },
    {
      "primitives": [
        {
          "attributes": {
            "NORMAL": 16,
            "POSITION": 15,
            "TANGENT": 17,
            "TEXCOORD_0": 18
          },
          "indices": 19,
          "material": 0,
          "mode": 4
        }
      ]
    },
    {
      "primitives": [
        {
          "attributes": {
            "NORMAL": 21,
            "POSITION": 20,
            "TANGENT": 22,
            "TEXCOORD_0": 23
          },
          "indices": 24,
          "material": 0,
          "mode": 4
        }
      ]
    },
    {
      "primitives": [
        {
          "attributes": {
            "NORMAL": 26,
            "POSITION": 25,
            "TANGENT": 27,
            "TEXCOORD_0": 28
          },
          "indices": 29,
          "material": 0,
          "mode": 4
        }
      ]
    },
    {
      "primitives": [
        {
          "attributes": {
            "NORMAL": 31,
            "POSITION": 30,
            "TANGENT": 32,
            "TEXCOORD_0": 33
          },
          "indices": 34,
          "material": 0,
          "mode": 4
        }
      ]
    },
    {
      "primitives": [
        {
          "attributes": {
            "NORMAL": 36,
            "POSITION": 35,
            "TANGENT": 37,
            "TEXCOORD_0": 38
          },
          "indices": 39,
          "material": 0,
          "mode": 4
        }
      ]
    }
  ],
  "nodes": [
    {
      "children": [
        1
      ],
      "name": "RootNode (gltf orientation matrix)",
      "rotation": [
        -0.70710678118654746,
        -0,
        -0,
        0.70710678118654757
      ]
    },
    {
      "children": [
        2
      ],
      "name": "RootNode (model correction matrix)"
    },
    {
      "children": [
        3,
        4,
        5,
        6,
        7,
        8,
        9,
        10
      ],
      "matrix": [
        1,
        0,
        0,
        0,
        0,
        1,
        0,
        0,
        0,
        0,
        1,
        0,
        1.2614220380783081,
        2.36490797996521,
        -6.7286281585693359,
        1
      ],
      "name": "Scan635_Woman_02.obj.cleaner.gles"
    },
    {
      "mesh": 0,
      "name": ""
    },
    {
      "mesh": 1,
      "name": ""
    },
    {
      "mesh": 2,
      "name": ""
    },
    {
      "mesh": 3,
      "name": ""
    },
    {
      "mesh": 4,
      "name": ""
    },
    {
      "mesh": 5,
      "name": ""
    },
    {
      "mesh": 6,
      "name": ""
    },
    {
      "mesh": 7,
      "name": ""
    }
  ],
  "samplers": [
    {
      "magFilter": 9729,
      "minFilter": 9987,
      "wrapS": 10497,
      "wrapT": 10497
    }
  ],
  "scene": 0,
  "scenes": [
    {
      "name": "OSG_Scene",
      "nodes": [
        0
      ]
    }
  ],
  "textures": [
    {
      "sampler": 0,
      "source": 0
    }
  ]
}

